<?xml version="1.0" standalone="no"?>
<!DOCTYPE svg PUBLIC "-//W3C//DTD SVG 20010904//EN"
 "http://www.w3.org/TR/2001/REC-SVG-20010904/DTD/svg10.dtd">
<svg version="1.0" xmlns="http://www.w3.org/2000/svg"
 width="700.000000pt" height="700.000000pt" viewBox="0 0 700.000000 700.000000"
 preserveAspectRatio="xMidYMid meet">
<metadata>
Created by potrace 1.11, written by Peter Selinger 2001-2013
</metadata>
<g transform="translate(0.000000,700.000000) scale(0.100000,-0.100000)"
fill="#000000" stroke="none">
<path d="M3437 6324 c-1 -1 -72 -5 -157 -8 -85 -4 -166 -8 -180 -10 -14 -3
-56 -7 -95 -11 -98 -9 -206 -23 -313 -41 -145 -24 -212 -37 -237 -44 -16 -5
-41 -11 -55 -14 -21 -3 -119 -26 -180 -41 -128 -32 -370 -109 -505 -160 -38
-14 -81 -30 -95 -35 -22 -7 -175 -70 -255 -104 -16 -7 -45 -19 -62 -26 -18 -7
-33 -16 -33 -20 0 -8 88 -226 119 -295 38 -83 46 -72 -127 -157 -174 -86 -240
-122 -387 -211 -175 -106 -427 -280 -518 -356 -12 -11 -56 -46 -98 -80 -42
-33 -81 -66 -87 -74 -13 -15 -16 -11 315 -442 67 -88 126 -164 130 -170 5 -5
73 -94 152 -198 78 -103 146 -189 151 -192 4 -3 30 12 56 34 94 74 280 200
410 279 180 109 528 280 538 264 2 -4 36 -86 76 -182 39 -96 78 -188 85 -205
7 -16 126 -304 263 -640 138 -335 269 -655 292 -710 23 -55 59 -145 81 -200
23 -55 47 -113 54 -130 27 -58 155 -374 155 -380 0 -2 -56 29 -124 68 l-125
72 -7 50 c-16 120 -111 222 -294 315 -69 35 -158 82 -360 190 -69 37 -179 95
-245 130 -66 35 -138 73 -161 85 -103 54 -101 35 4 -30 42 -27 113 -72 157
-101 44 -28 168 -107 275 -174 202 -128 230 -147 230 -162 0 -20 -49 1 -303
134 -150 77 -322 167 -384 199 -62 32 -114 55 -117 50 -3 -4 31 -30 75 -57 44
-27 99 -61 122 -76 23 -15 49 -31 57 -35 8 -4 35 -21 60 -38 25 -16 90 -58
145 -92 186 -114 305 -194 305 -202 0 -23 -35 -16 -111 23 -564 288 -719 364
-723 358 -3 -4 32 -30 77 -57 45 -27 93 -57 107 -66 14 -9 145 -91 293 -181
183 -112 266 -168 264 -178 -2 -8 -8 -14 -15 -13 -6 2 -183 89 -393 193 -210
105 -386 189 -393 187 -6 -2 9 -16 34 -31 25 -16 61 -38 80 -51 184 -120 802
-482 879 -514 73 -31 148 -34 218 -10 l55 19 141 -81 c77 -45 154 -89 171 -99
78 -44 105 -62 109 -73 3 -7 30 -72 61 -146 31 -73 56 -139 56 -146 0 -10
-215 -135 -501 -290 -369 -199 -451 -257 -464 -328 -9 -47 -3 -63 34 -85 53
-32 156 -8 261 62 32 22 603 369 671 408 16 10 40 25 53 33 28 19 24 25 114
-196 157 -387 206 -505 212 -512 4 -4 21 27 39 70 29 68 113 271 143 343 6 14
14 33 19 42 5 10 27 64 50 120 22 56 46 112 52 125 13 24 7 27 664 -379 233
-144 366 -170 391 -75 12 45 5 63 -43 112 -60 61 -137 112 -315 208 -120 64
-178 96 -255 137 -44 24 -102 55 -130 70 -27 15 -89 48 -137 74 -49 26 -88 51
-88 56 0 4 21 57 46 117 25 59 53 128 64 153 17 42 29 52 166 138 163 101 151
98 277 70 l59 -13 96 50 c112 58 442 276 587 388 253 195 408 380 364 433 -10
13 -49 12 -84 -3 -17 -7 -131 -71 -193 -108 -10 -5 -89 -52 -177 -103 -88 -51
-167 -97 -175 -102 -8 -6 -40 -24 -70 -41 -190 -110 -661 -385 -692 -405 -21
-13 -38 -23 -38 -20 0 2 85 208 189 457 104 250 313 753 465 1119 153 366 285
683 295 705 10 22 26 61 36 88 10 26 20 47 24 47 9 0 319 -155 381 -190 146
-84 304 -188 459 -303 92 -69 94 -69 110 -49 59 75 500 649 517 673 25 35 46
62 151 198 46 58 83 108 83 111 0 8 -238 196 -353 279 -213 155 -449 299 -684
419 -84 42 -153 82 -153 87 0 6 34 91 75 189 41 98 75 181 75 183 0 4 -99 52
-280 135 -125 58 -423 160 -633 218 -91 25 -80 22 -227 55 -121 28 -131 30
-220 45 -88 15 -114 20 -135 24 -11 2 -45 7 -75 11 -30 3 -66 8 -80 10 -14 2
-56 7 -95 11 -38 4 -83 8 -100 10 -80 8 -532 23 -538 18z"/>
<path d="M1235 3638 c10 -67 61 -257 88 -328 93 -248 234 -427 402 -510 45
-22 93 -43 106 -46 93 -19 108 -20 151 -7 58 17 72 34 69 86 -13 235 -129 384
-371 476 -88 34 -153 66 -229 113 -55 34 -47 36 17 4 26 -13 85 -36 132 -51
47 -15 105 -33 129 -41 72 -23 167 -81 225 -139 74 -75 119 -158 141 -263 14
-67 65 -4 67 83 7 232 -122 399 -366 474 -90 28 -101 30 -271 51 -129 15 -193
40 -250 96 l-46 44 6 -42z"/>
<path d="M5787 3654 c-9 -13 -37 -37 -60 -53 -56 -38 -101 -50 -252 -66 -277
-30 -463 -127 -543 -285 -66 -128 -71 -287 -12 -342 17 -16 19 -14 34 49 48
191 186 325 397 389 110 33 248 85 255 96 3 4 10 8 17 8 33 0 -144 -97 -248
-135 -146 -55 -263 -142 -320 -239 -33 -57 -61 -169 -61 -240 1 -56 2 -59 36
-77 48 -26 117 -24 208 7 219 76 383 268 494 579 31 87 80 290 76 315 -3 16
-5 16 -21 -6z"/>
</g>
</svg>
