<?xml version="1.0" encoding="UTF-8" standalone="no"?>
<svg
   xmlns:dc="http://purl.org/dc/elements/1.1/"
   xmlns:cc="http://creativecommons.org/ns#"
   xmlns:rdf="http://www.w3.org/1999/02/22-rdf-syntax-ns#"
   xmlns:svg="http://www.w3.org/2000/svg"
   xmlns="http://www.w3.org/2000/svg"
   xmlns:sodipodi="http://sodipodi.sourceforge.net/DTD/sodipodi-0.dtd"
   xmlns:inkscape="http://www.inkscape.org/namespaces/inkscape"
   id="svg8"
   version="1.1"
   viewBox="0 0 167.66771 150.55403"
   height="150.55403mm"
   width="167.66771mm"
   sodipodi:docname="logo.svg"
   inkscape:version="0.92.2 (5c3e80d, 2017-08-06)">
  <sodipodi:namedview
     pagecolor="#ffffff"
     bordercolor="#666666"
     borderopacity="1"
     objecttolerance="10"
     gridtolerance="10"
     guidetolerance="10"
     inkscape:pageopacity="0"
     inkscape:pageshadow="2"
     inkscape:window-width="945"
     inkscape:window-height="784"
     id="namedview51"
     showgrid="false"
     fit-margin-top="0"
     fit-margin-left="0"
     fit-margin-right="0"
     fit-margin-bottom="0"
     inkscape:zoom="0.2102413"
     inkscape:cx="316.04124"
     inkscape:cy="216.08254"
     inkscape:window-x="265"
     inkscape:window-y="248"
     inkscape:window-maximized="0"
     inkscape:current-layer="svg8" />
  <defs
     id="defs2" />
  <metadata
     id="metadata5">
    <rdf:RDF>
      <cc:Work
         rdf:about="">
        <dc:format>image/svg+xml</dc:format>
        <dc:type
           rdf:resource="http://purl.org/dc/dcmitype/StillImage" />
        <dc:title></dc:title>
      </cc:Work>
    </rdf:RDF>
  </metadata>
  <g
     id="layer1"
     transform="translate(-21.380754,-55.117803)">
    <flowRoot
       style="font-style:normal;font-weight:normal;font-size:40px;line-height:1.25;font-family:sans-serif;letter-spacing:0px;word-spacing:0px;fill:#000000;fill-opacity:1;stroke:none"
       id="flowRoot51"
       xml:space="preserve"><flowRegion
         id="flowRegion53"><rect
           y="285.80093"
           x="366.79688"
           height="58.59375"
           width="157.8125"
           id="rect55" /></flowRegion><flowPara
         id="flowPara57" /></flowRoot>    <g
       id="g262">
      <path
         style="fill:#008000;stroke-width:0.01671974"
         d="m 72.225179,199.66333 c 0.02771,0.0376 0.05079,0.0597 0.05695,0.0502 0.0062,-0.0123 0.01847,6.4e-4 0.03078,0.0185 0.03879,0.0671 0.241651,0.26874 0.3779,0.37571 0.299217,0.23457 0.622753,0.3804 1.016322,0.458 0.426046,0.084 0.742563,0.089 1.243598,0.0185 0.84852,-0.1179 1.773815,-0.44236 3.036591,-1.06511 0.669145,-0.3301 0.712057,-0.35605 20.184717,-12.27554 10.182403,-6.23273 28.201953,-17.14024 28.222143,-17.14606 0.0185,-0.003 0.9852,0.22441 2.14452,0.51175 1.15934,0.28721 2.13118,0.52581 2.15971,0.53012 0.0585,0.009 0.0705,0.002 1.78875,-0.94881 6.071,-3.36099 1.78477,-0.75069 6.36664,-3.70518 9.25323,-5.96652 15.33867,-11.04358 17.59843,-14.68229 0.2672,-0.43045 0.47669,-0.86306 0.62325,-1.28781 0.1022,-0.29644 0.14837,-0.50633 0.1533,-0.69706 0.002,-0.076 0.006,-0.1336 0.0123,-0.12806 0.003,0.003 0.006,-0.006 0.003,-0.0246 -0.002,-0.0431 -0.10189,-0.21702 -0.16438,-0.2866 -0.0246,-0.0277 -0.045,-0.0459 -0.0422,-0.0376 0.002,0.009 -0.0354,-0.0185 -0.085,-0.0576 -0.15053,-0.12098 -0.27582,-0.17916 -0.47127,-0.21918 -0.21794,-0.0443 -0.37543,-0.0493 -0.61425,-0.0185 -0.425,0.053 -0.94826,0.22442 -1.45733,0.47709 -0.11329,0.056 -7.93286,4.61989 -19.66106,11.47408 l -19.4734,11.38078 -19.1494,10.59591 c -11.689876,6.46836 -19.245261,10.6424 -19.395485,10.71533 -0.375099,0.18193 -1.42005,0.79126 -1.768059,1.03018 -1.298762,0.89395 -2.056348,1.59951 -2.542545,2.36729 -0.208405,0.32911 -0.395539,0.78172 -0.462555,1.11855 -0.05726,0.2866 -0.03602,0.85083 0.03602,0.97594 0.0092,0.0123 0.0092,0.0246 -0.0031,0.0277 -0.03817,9.3e-4 0.08404,0.2395 0.233033,0.45449 z"
         id="path1371"
         inkscape:connector-curvature="0" />
      <path
         style="fill:#008000;stroke-width:0.01834466"
         d="m 139.74013,199.22786 c 0.25458,-0.7875 0.0277,-1.62032 -0.67912,-2.48187 -0.7824,-0.9545 -2.07494,-1.97092 -4.11993,-3.23979 -0.57636,-0.35755 -2.20088,-1.28417 -2.77413,-1.58133 -1.54269,-0.80117 -7.78063,-4.15677 -15.36794,-8.26701 l -8.74194,-4.73575 -11.764741,-6.63462 c -9.776333,-5.51307 -11.767573,-6.64049 -11.781241,-6.66974 -0.0092,-0.0215 -0.01847,-0.1416 -0.02155,-0.2712 -0.0062,-0.5856 -0.0902,-1.31988 -0.206558,-1.81414 -0.08496,-0.36254 -0.308113,-0.9671 -0.467142,-1.26755 -0.631526,-1.19324 -1.766243,-2.48406 -3.101576,-3.52796 -0.309499,-0.24227 -0.823001,-0.61195 -0.954693,-0.68826 -0.04556,-0.0277 -0.07604,-0.0505 -0.06588,-0.0563 0.0277,-0.009 -0.630111,-0.4109 -1.092727,-0.66246 -0.235495,-0.12683 -0.427185,-0.22626 -0.426292,-0.21887 7.08e-4,0.009 -1.520436,-0.79284 -3.380568,-1.77865 -1.860102,-0.98579 -6.80448,-3.60594 -10.987331,-5.82261 -4.182975,-2.21663 -7.616707,-4.03299 -7.630652,-4.03629 -0.03478,-0.009 -0.241959,0.3482 -0.221642,0.38043 0.0092,0.009 4.14742,2.64672 9.199263,5.85437 l 9.185195,5.83212 0.07296,0.12867 c 0.128368,0.22626 0.124366,0.39644 -0.01539,0.51397 -0.07819,0.0671 -0.346224,0.17793 -0.43879,0.18101 -0.05633,0.002 -0.686506,-0.32545 -9.696758,-5.03787 -5.300144,-2.77198 -9.672776,-5.05819 -9.716951,-5.08044 l -0.07973,-0.0419 -0.11236,0.18316 c -0.110513,0.17916 -0.111129,0.18471 -0.08035,0.21918 0.01847,0.0215 4.245034,2.68006 9.394523,5.91179 l 9.362632,5.87583 0.131446,0.14776 c 0.276129,0.30882 0.410993,0.61527 0.315717,0.71741 -0.08127,0.0871 -0.379593,0.14468 -0.672161,0.12898 l -0.12375,-0.006 -9.967931,-5.06727 c -5.482352,-2.78696 -9.978643,-5.06763 -9.991695,-5.06822 -0.03632,-3.7e-4 -0.239189,0.35777 -0.216409,0.3827 0.0092,0.009 4.206832,2.58069 9.326984,5.7112 l 9.309407,5.69168 0.05603,0.10436 c 0.06649,0.12375 0.12098,0.29029 0.123442,0.37458 8.62e-4,0.0348 -0.02155,0.0957 -0.04371,0.13945 -0.04063,0.0708 -0.05972,0.0837 -0.187781,0.13052 -0.118825,0.0437 -0.280747,0.0671 -0.396678,0.0585 -0.0092,-7.1e-4 -4.403139,-2.19663 -9.753953,-4.8789 -5.350814,-2.68227 -9.737925,-4.8789 -9.749161,-4.88143 -0.01539,-0.002 -0.05664,0.0668 -0.120364,0.1884 l -0.100047,0.1927 0.252119,0.16162 c 0.262892,0.16746 4.447415,2.76631 6.106654,3.79214 2.567325,1.5873 4.338186,2.67036 6.327271,3.86902 1.831258,1.10371 10.03784,5.85686 10.845142,6.28171 0.90233,0.47456 1.557929,0.76359 2.238956,0.98652 0.846243,0.27736 1.736352,0.42244 2.508898,0.40927 0.902946,-0.0185 2.376806,-0.42956 3.326974,-0.93512 0.05972,-0.0311 0.12375,-0.0548 0.142836,-0.0502 0.12375,0.0246 0.890202,0.45735 4.909377,2.77828 4.311773,2.49 6.794351,3.94305 13.703096,8.0172 4.47462,2.63912 3.5456,2.0723 13.16567,8.0301 8.44319,5.22895 8.9473,5.53906 12.10743,7.44823 1.81352,1.09575 3.319,2.0087 3.34547,2.02871 0.0277,0.0215 0.22872,0.15453 0.45024,0.29767 2.65309,1.72287 4.89497,2.74403 6.55292,2.98503 0.51981,0.0757 0.90935,0.0711 1.34229,-0.0185 0.2986,-0.0597 0.42786,-0.10682 0.64621,-0.23703 0.26535,-0.15761 0.33305,-0.23088 0.55254,-0.59705 0.15453,-0.25951 0.2004,-0.34887 0.24442,-0.48318 z"
         id="path1369"
         inkscape:connector-curvature="0" />
      <path
         style="color:#000000;font-style:normal;font-variant:normal;font-weight:normal;font-stretch:normal;font-size:medium;line-height:normal;font-family:sans-serif;font-variant-ligatures:normal;font-variant-position:normal;font-variant-caps:normal;font-variant-numeric:normal;font-variant-alternates:normal;font-feature-settings:normal;text-indent:0;text-align:start;text-decoration:none;text-decoration-line:none;text-decoration-style:solid;text-decoration-color:#000000;letter-spacing:normal;word-spacing:normal;text-transform:none;writing-mode:lr-tb;direction:ltr;text-orientation:mixed;dominant-baseline:auto;baseline-shift:baseline;text-anchor:start;white-space:normal;shape-padding:0;clip-rule:nonzero;display:inline;overflow:visible;visibility:visible;opacity:1;isolation:auto;mix-blend-mode:normal;color-interpolation:sRGB;color-interpolation-filters:linearRGB;solid-color:#000000;solid-opacity:1;vector-effect:none;fill:#008000;fill-opacity:1;fill-rule:nonzero;stroke:none;stroke-width:2.41168737;stroke-linecap:round;stroke-linejoin:miter;stroke-miterlimit:4;stroke-dasharray:none;stroke-dashoffset:0;stroke-opacity:1;color-rendering:auto;image-rendering:auto;shape-rendering:auto;text-rendering:auto;enable-background:accumulate"
         d="M 105.18353,65.993518 C 75.412047,66.041654 46.539523,76.608444 23.311977,95.94331 l -1.931223,1.606692 19.151518,24.989708 2.066436,-1.58601 0.0033,-0.003 C 60.565544,107.25135 82.552859,99.813632 105.1757,99.783659 c 22.61942,0.04626 44.59935,7.496831 62.55142,21.205221 v 0.002 l 2.07598,1.58125 19.24537,-25.112199 -1.93122,-1.6067 h -0.002 C 163.85914,76.538195 134.9671,65.999854 105.18512,65.993518 Z"
         id="path1202"
         inkscape:connector-curvature="0" />
      <path
         style="color:#000000;font-style:normal;font-variant:normal;font-weight:normal;font-stretch:normal;font-size:medium;line-height:normal;font-family:sans-serif;font-variant-ligatures:normal;font-variant-position:normal;font-variant-caps:normal;font-variant-numeric:normal;font-variant-alternates:normal;font-feature-settings:normal;text-indent:0;text-align:start;text-decoration:none;text-decoration-line:none;text-decoration-style:solid;text-decoration-color:#000000;letter-spacing:normal;word-spacing:normal;text-transform:none;writing-mode:lr-tb;direction:ltr;text-orientation:mixed;dominant-baseline:auto;baseline-shift:baseline;text-anchor:start;white-space:normal;shape-padding:0;clip-rule:nonzero;display:inline;overflow:visible;visibility:visible;opacity:1;isolation:auto;mix-blend-mode:normal;color-interpolation:sRGB;color-interpolation-filters:linearRGB;solid-color:#000000;solid-opacity:1;vector-effect:none;fill:#008000;fill-opacity:1;fill-rule:nonzero;stroke:none;stroke-width:7.58936214;stroke-linecap:butt;stroke-linejoin:miter;stroke-miterlimit:4;stroke-dasharray:none;stroke-dashoffset:0;stroke-opacity:1;color-rendering:auto;image-rendering:auto;shape-rendering:auto;text-rendering:auto;enable-background:accumulate"
         d="m 105.22202,55.119545 c -16.693389,0.08444 -33.374402,3.367214 -49.098106,9.839024 l -7.013777,2.887288 56.727523,137.825983 57.19839,-137.210347 -6.59062,-3.076589 -0.003,-0.0016 c -0.56291,-0.263385 -1.13875,-0.530452 -1.73078,-0.796989 l -0.0923,-0.04137 -0.11944,-0.04615 -0.0523,-0.02216 -0.0336,-0.01447 C 138.62582,58.14985 121.91541,55.035044 105.2219,55.119474 Z"
         id="path950"
         inkscape:connector-curvature="0" />
      <path
         style="color:#000000;font-style:normal;font-variant:normal;font-weight:normal;font-stretch:normal;font-size:medium;line-height:normal;font-family:sans-serif;font-variant-ligatures:normal;font-variant-position:normal;font-variant-caps:normal;font-variant-numeric:normal;font-variant-alternates:normal;font-feature-settings:normal;text-indent:0;text-align:start;text-decoration:none;text-decoration-line:none;text-decoration-style:solid;text-decoration-color:#000000;letter-spacing:normal;word-spacing:normal;text-transform:none;writing-mode:lr-tb;direction:ltr;text-orientation:mixed;dominant-baseline:auto;baseline-shift:baseline;text-anchor:start;white-space:normal;shape-padding:0;clip-rule:nonzero;display:inline;overflow:visible;visibility:visible;opacity:1;isolation:auto;mix-blend-mode:normal;color-interpolation:sRGB;color-interpolation-filters:linearRGB;solid-color:#000000;solid-opacity:1;vector-effect:none;fill:#000000;fill-opacity:1;fill-rule:nonzero;stroke:none;stroke-width:7.58936214;stroke-linecap:butt;stroke-linejoin:miter;stroke-miterlimit:4;stroke-dasharray:none;stroke-dashoffset:0;stroke-opacity:1;color-rendering:auto;image-rendering:auto;shape-rendering:auto;text-rendering:auto;enable-background:accumulate"
         d="m 105.14007,58.913574 c -16.208604,0.08198 -32.404806,3.27004 -47.672757,9.554282 L 53.96281,69.910698 105.75889,195.75645 158.03223,70.360896 154.7361,68.822594 c -0.5598,-0.261938 -1.11947,-0.522571 -1.68306,-0.776299 l -0.0779,-0.03017 -0.0714,-0.03017 c -15.33075,-6.129483 -31.55481,-9.154248 -47.76345,-9.072271 z"
         id="path941"
         inkscape:connector-curvature="0" />
      <path
         style="opacity:1;fill:#008000;fill-opacity:1;stroke-width:0.82879055"
         d="M 151.49397,71.508249 A 123.1346,123.1346 0 0 0 58.913867,71.976481 L 105.78016,185.84363 153.12867,72.258628 a 123.1346,123.1346 0 0 0 -1.6347,-0.750379 z"
         id="path25-4"
         inkscape:connector-curvature="0" />
      <path
         style="color:#000000;font-style:normal;font-variant:normal;font-weight:normal;font-stretch:normal;font-size:medium;line-height:normal;font-family:sans-serif;font-variant-ligatures:normal;font-variant-position:normal;font-variant-caps:normal;font-variant-numeric:normal;font-variant-alternates:normal;font-feature-settings:normal;text-indent:0;text-align:start;text-decoration:none;text-decoration-line:none;text-decoration-style:solid;text-decoration-color:#000000;letter-spacing:normal;word-spacing:normal;text-transform:none;writing-mode:lr-tb;direction:ltr;text-orientation:mixed;dominant-baseline:auto;baseline-shift:baseline;text-anchor:start;white-space:normal;shape-padding:0;clip-rule:nonzero;display:inline;overflow:visible;visibility:visible;opacity:1;isolation:auto;mix-blend-mode:normal;color-interpolation:sRGB;color-interpolation-filters:linearRGB;solid-color:#000000;solid-opacity:1;vector-effect:none;fill:#000000;fill-opacity:1;fill-rule:nonzero;stroke:none;stroke-width:2.81923008;stroke-linecap:round;stroke-linejoin:miter;stroke-miterlimit:4;stroke-dasharray:none;stroke-dashoffset:0;stroke-opacity:1;color-rendering:auto;image-rendering:auto;shape-rendering:auto;text-rendering:auto;enable-background:accumulate"
         d="m 105.18459,70.018859 c 28.384,0.0062 55.88208,9.976864 78.24579,28.150204 L 168.9825,117.02405 C 150.54232,103.3251 128.20922,95.805184 105.18459,95.758079 82.149797,95.786092 59.800436,103.29912 41.344579,116.99399 L 26.998915,98.265262 C 49.335224,80.072082 76.810496,70.064785 105.18459,70.018859 Z"
         id="path1133"
         inkscape:connector-curvature="0" />
      <g
         id="text1160"
         style="font-style:normal;font-weight:normal;font-size:10.58333302px;line-height:1.25;font-family:sans-serif;letter-spacing:0.09789583px;word-spacing:0px;opacity:1;fill:#ffffff;fill-opacity:1;stroke:none;stroke-width:0.26458332"
         aria-label="MANHATTAN"
         transform="matrix(3.078365,0,0,3.078365,-256.3249,-179.14232)">
        <path
           id="path51"
           style="font-style:normal;font-variant:normal;font-weight:normal;font-stretch:normal;font-size:7.05555534px;font-family:Righteous;-inkscape-font-specification:Righteous;letter-spacing:0.10054167px;word-spacing:0px;fill:#ffffff;fill-opacity:1;stroke-width:0.26458332"
           d="m 101.0158,91.723601 -0.85208,0.494744 -1.771388,-3.050802 q -0.0519,-0.08938 -0.132624,-0.146083 -0.07775,-0.05843 -0.170203,-0.08044 -0.0912,-0.02672 -0.187694,-0.01451 -0.09649,0.0122 -0.185869,0.0641 -0.08938,0.0519 -0.147813,0.129645 -0.05843,0.07775 -0.08342,0.171932 -0.02374,0.08947 -0.01153,0.185965 0.0122,0.09649 0.0641,0.185869 l 1.771389,3.050802 -0.855058,0.496474 -1.77139,-3.050802 q -0.0519,-0.08938 -0.129645,-0.147813 -0.07775,-0.05843 -0.170203,-0.08044 -0.0912,-0.02672 -0.187694,-0.01451 -0.09649,0.0122 -0.18587,0.0641 -0.08938,0.0519 -0.147812,0.129645 -0.05843,0.07775 -0.08342,0.171932 -0.02374,0.08947 -0.01153,0.185965 0.0122,0.09649 0.0641,0.185869 l 1.77139,3.050802 -0.855059,0.496474 -1.771389,-3.050802 q -0.153959,-0.265158 -0.190572,-0.554629 -0.03536,-0.29418 0.0371,-0.567312 0.07372,-0.277841 0.249015,-0.511088 0.176549,-0.237956 0.441707,-0.391915 0.238344,-0.13839 0.508978,-0.180001 0.268905,-0.04459 0.538096,0.01423 0.08237,-0.262945 0.251418,-0.472646 0.170302,-0.21441 0.408646,-0.3528 0.265158,-0.153959 0.556359,-0.187593 0.29245,-0.03834 0.567312,0.0371 0.276111,0.07074 0.511088,0.249016 0.236226,0.173569 0.390185,0.438727 z"
           inkscape:connector-curvature="0" />
        <path
           id="path53"
           style="font-style:normal;font-variant:normal;font-weight:normal;font-stretch:normal;font-size:7.05555534px;font-family:Righteous;-inkscape-font-specification:Righteous;letter-spacing:0.10054167px;word-spacing:0px;fill:#ffffff;fill-opacity:1;stroke-width:0.26458332"
           d="m 104.09265,88.324517 -0.36756,-0.917883 q -0.0756,-0.188694 -0.21572,-0.325544 -0.13824,-0.141329 -0.31291,-0.216111 -0.17468,-0.07478 -0.37236,-0.07727 -0.19576,-0.007 -0.38446,0.0686 -0.18869,0.07556 -0.32874,0.216997 -0.13813,0.136957 -0.21291,0.311634 -0.0748,0.174677 -0.0805,0.373638 -0.004,0.194482 0.0718,0.383176 l 0.36756,0.917883 z m 1.65173,1.465007 -0.91789,0.367562 -0.36756,-0.917883 -1.83577,0.735123 0.36757,0.917883 -0.91469,0.366282 -1.1014,-2.750452 q -0.15241,-0.380586 -0.14168,-0.77083 0.009,-0.393443 0.15581,-0.741517 0.14956,-0.349354 0.42455,-0.626466 0.27817,-0.278393 0.65876,-0.430797 0.38059,-0.152403 0.77083,-0.141678 0.39344,0.0094 0.7428,0.15901 0.34935,0.149565 0.62775,0.427744 0.27711,0.274982 0.42951,0.655567 z"
           inkscape:connector-curvature="0" />
        <path
           id="path55"
           style="font-style:normal;font-variant:normal;font-weight:normal;font-stretch:normal;font-size:7.05555534px;font-family:Righteous;-inkscape-font-specification:Righteous;letter-spacing:0.10054167px;word-spacing:0px;fill:#ffffff;fill-opacity:1;stroke-width:0.26458332"
           d="m 110.67949,88.45206 -1.02506,0.260513 -2.64749,-2.682707 0.80105,3.15197 -0.95828,0.243542 -1.21686,-4.788057 1.02506,-0.260513 2.64835,2.686046 -0.80191,-3.155309 0.95828,-0.243542 z"
           inkscape:connector-curvature="0" />
        <path
           id="path57"
           style="font-style:normal;font-variant:normal;font-weight:normal;font-stretch:normal;font-size:7.05555534px;font-family:Righteous;-inkscape-font-specification:Righteous;letter-spacing:0.10054167px;word-spacing:0px;fill:#ffffff;fill-opacity:1;stroke-width:0.26458332"
           d="m 112.8744,88.123323 -0.98309,0.105571 -0.52749,-4.912026 0.98309,-0.10557 0.21114,1.96618 1.96276,-0.210773 -0.21114,-1.96618 0.98309,-0.105571 0.52748,4.912026 -0.98309,0.10557 -0.21077,-1.962755 -1.96275,0.210773 z"
           inkscape:connector-curvature="0" />
        <path
           id="path59"
           style="font-style:normal;font-variant:normal;font-weight:normal;font-stretch:normal;font-size:7.05555534px;font-family:Righteous;-inkscape-font-specification:Righteous;letter-spacing:0.10054167px;word-spacing:0px;fill:#ffffff;fill-opacity:1;stroke-width:0.26458332"
           d="m 120.04486,85.911351 0.0391,-0.987967 q 0.008,-0.203102 -0.064,-0.385242 -0.0685,-0.185447 -0.19745,-0.325017 -0.12893,-0.139571 -0.30838,-0.22253 -0.17587,-0.08626 -0.37897,-0.09431 -0.2031,-0.008 -0.38868,0.0639 -0.18201,0.06864 -0.32158,0.19758 -0.13957,0.128936 -0.22597,0.308247 -0.0828,0.176005 -0.0909,0.379107 l -0.0391,0.987968 z m 0.90984,2.011623 -0.98796,-0.03913 0.0391,-0.987968 -1.97594,-0.07826 -0.0391,0.987968 -0.98452,-0.03899 0.11725,-2.960461 q 0.0162,-0.409646 0.18531,-0.76152 0.16922,-0.355316 0.44492,-0.613325 0.27914,-0.257872 0.64329,-0.398601 0.36758,-0.140592 0.77723,-0.124367 0.40965,0.01622 0.76152,0.185311 0.35532,0.169224 0.61319,0.448365 0.25787,0.279141 0.39846,0.646728 0.14073,0.364145 0.12451,0.77379 z"
           inkscape:connector-curvature="0" />
        <path
           id="path61"
           style="font-style:normal;font-variant:normal;font-weight:normal;font-stretch:normal;font-size:7.05555534px;font-family:Righteous;-inkscape-font-specification:Righteous;letter-spacing:0.10054167px;word-spacing:0px;fill:#ffffff;fill-opacity:1;stroke-width:0.26458332"
           d="m 124.01186,88.421236 -0.97019,-0.171895 0.68939,-3.890925 -1.46207,-0.259045 0.1725,-0.973579 3.89092,0.689384 -0.17249,0.973579 -1.45868,-0.258444 z"
           inkscape:connector-curvature="0" />
        <path
           id="path63"
           style="font-style:normal;font-variant:normal;font-weight:normal;font-stretch:normal;font-size:7.05555534px;font-family:Righteous;-inkscape-font-specification:Righteous;letter-spacing:0.10054167px;word-spacing:0px;fill:#ffffff;fill-opacity:1;stroke-width:0.26458332"
           d="m 128.2436,89.505836 -0.94192,-0.289138 1.15959,-3.777553 -1.41947,-0.435729 0.29015,-0.945212 3.77756,1.159585 -0.29015,0.945212 -1.41617,-0.434718 z"
           inkscape:connector-curvature="0" />
        <path
           id="path65"
           style="font-style:normal;font-variant:normal;font-weight:normal;font-stretch:normal;font-size:7.05555534px;font-family:Righteous;-inkscape-font-specification:Righteous;letter-spacing:0.10054167px;word-spacing:0px;fill:#ffffff;fill-opacity:1;stroke-width:0.26458332"
           d="m 133.7473,89.576742 0.40526,-0.901869 q 0.0833,-0.185402 0.0845,-0.381285 0.006,-0.197613 -0.0618,-0.375238 -0.0675,-0.177625 -0.20297,-0.321599 -0.13092,-0.145704 -0.31632,-0.229017 -0.18541,-0.08331 -0.38443,-0.08588 -0.19447,-0.0043 -0.3721,0.06319 -0.17762,0.06748 -0.32474,0.201551 -0.14256,0.132339 -0.22587,0.317741 l -0.40527,0.901869 z m 0.0927,2.205866 -0.90187,-0.40527 0.40527,-0.901869 -1.80374,-0.81054 -0.40527,0.90187 -0.89873,-0.403858 1.2144,-2.702465 q 0.16804,-0.373946 0.4563,-0.637212 0.28968,-0.266408 0.64179,-0.402784 0.35525,-0.134964 0.7456,-0.129515 0.3935,0.0069 0.76745,0.1749 0.37394,0.168039 0.63721,0.456304 0.2664,0.289677 0.40137,0.644928 0.13496,0.35525 0.1281,0.748746 -0.005,0.390354 -0.17349,0.7643 z"
           inkscape:connector-curvature="0" />
        <path
           id="path67"
           style="font-style:normal;font-variant:normal;font-weight:normal;font-stretch:normal;font-size:7.05555534px;font-family:Righteous;-inkscape-font-specification:Righteous;letter-spacing:0.10054167px;word-spacing:0px;fill:#ffffff;fill-opacity:1;stroke-width:0.26458332"
           d="m 138.23734,94.376529 -0.90411,-0.548813 0.059,-3.768645 -1.68756,2.780066 -0.84521,-0.51306 2.56351,-4.223108 0.90411,0.548813 -0.0608,3.771589 1.68934,-2.78301 0.84521,0.513059 z"
           inkscape:connector-curvature="0" />
      </g>
      <path
         style="opacity:1;fill:none;stroke:none;stroke-width:0.81448406px;stroke-linecap:butt;stroke-linejoin:miter;stroke-opacity:1"
         d="m 41.344573,116.99399 c 0,0 59.663657,-47.62208 127.637927,0.0302"
         id="path1165"
         inkscape:connector-curvature="0" />
      <g
         id="text1226"
         style="font-style:normal;font-weight:normal;font-size:9.44972038px;line-height:1.25;font-family:sans-serif;letter-spacing:0.24077083px;word-spacing:0.04497916px;fill:#ffffff;fill-opacity:1;stroke:none;stroke-width:0.23624301"
         aria-label="FRESH PIZZA"
         transform="matrix(3.078365,0,0,3.078365,-256.3249,-179.14232)">
        <path
           id="path70"
           style="font-style:normal;font-variant:normal;font-weight:normal;font-stretch:normal;font-size:3.14990687px;font-family:Righteous;-inkscape-font-specification:Righteous;letter-spacing:0.24077083px;word-spacing:0.04497916px;fill:#ffffff;fill-opacity:1;stroke:none;stroke-width:0.23624301"
           d="m 108.6678,93.702984 -0.42424,0.121955 -0.60934,-2.119704 1.48408,-0.426629 0.12196,0.424236 -1.05985,0.304675 0.12195,0.424236 0.63562,-0.182719 0.12195,0.424236 -0.63561,0.18272 z"
           inkscape:connector-curvature="0" />
        <path
           id="path72"
           style="font-style:normal;font-variant:normal;font-weight:normal;font-stretch:normal;font-size:3.14990687px;font-family:Righteous;-inkscape-font-specification:Righteous;letter-spacing:0.24077083px;word-spacing:0.04497916px;fill:#ffffff;fill-opacity:1;stroke:none;stroke-width:0.23624301"
           d="m 110.05086,91.510068 0.19295,0.861492 0.43074,-0.09648 q 0.0885,-0.01983 0.1592,-0.07033 0.0703,-0.052 0.11574,-0.123643 0.0454,-0.07164 0.061,-0.157084 0.0167,-0.08728 -0.003,-0.175827 -0.0198,-0.08855 -0.0718,-0.158864 -0.0508,-0.07215 -0.12248,-0.117573 -0.0716,-0.04542 -0.15708,-0.06096 -0.0858,-0.01704 -0.17433,0.0028 z m 0.38556,1.721483 -0.43075,0.09647 -0.48204,-2.152229 0.8615,-0.19295 q 0.11856,-0.02656 0.23518,-0.01958 0.11629,0.0055 0.22362,0.04133 0.10849,0.03402 0.20435,0.09608 0.097,0.06023 0.17407,0.143846 0.0785,0.08328 0.1331,0.186121 0.0561,0.102503 0.0826,0.221071 0.0249,0.111063 0.0199,0.22251 -0.003,0.111111 -0.0348,0.21743 -0.0298,0.105983 -0.0871,0.202336 -0.0572,0.09635 -0.13717,0.175728 l 0.36469,0.509373 -0.45776,0.102526 -0.28475,-0.391729 -0.4811,0.110907 z"
           inkscape:connector-curvature="0" />
        <path
           id="path74"
           style="font-style:normal;font-variant:normal;font-weight:normal;font-stretch:normal;font-size:3.14990687px;font-family:Righteous;-inkscape-font-specification:Righteous;letter-spacing:0.24077083px;word-spacing:0.04497916px;fill:#ffffff;fill-opacity:1;stroke:none;stroke-width:0.23624301"
           d="m 113.55862,92.645993 -1.49293,0.238669 -0.34817,-2.177895 1.49293,-0.238669 0.0697,0.435883 -1.05706,0.168986 0.0697,0.435883 0.71533,-0.114357 0.0697,0.435882 -0.71533,0.114358 0.0694,0.434364 1.05705,-0.168987 z"
           inkscape:connector-curvature="0" />
        <path
           id="path76"
           style="font-style:normal;font-variant:normal;font-weight:normal;font-stretch:normal;font-size:3.14990687px;font-family:Righteous;-inkscape-font-specification:Righteous;letter-spacing:0.24077083px;word-spacing:0.04497916px;fill:#ffffff;fill-opacity:1;stroke:none;stroke-width:0.23624301"
           d="m 113.61554,91.079622 q -0.0133,-0.136241 0.0272,-0.260712 0.0404,-0.124472 0.12056,-0.221905 0.0815,-0.09911 0.19585,-0.162788 0.11434,-0.06368 0.25058,-0.07694 l 1.00726,-0.0981 0.0428,0.439339 -1.00727,0.0981 q -0.0459,0.0045 -0.0841,0.02519 -0.0382,0.02071 -0.0658,0.05431 -0.0263,0.03192 -0.0392,0.07336 -0.013,0.04144 -0.008,0.08736 0.004,0.04592 0.0253,0.08562 0.0207,0.03816 0.0528,0.06594 0.0334,0.0261 0.0749,0.03907 0.0414,0.01296 0.0874,0.0085 l 0.43934,-0.04279 q 0.13624,-0.01327 0.26071,0.02715 0.12585,0.03874 0.22344,0.120409 0.099,0.07999 0.16125,0.196004 0.0637,0.114333 0.0769,0.250574 0.0133,0.136241 -0.0272,0.260712 -0.0389,0.124322 -0.12041,0.223435 -0.0801,0.09743 -0.19601,0.161258 -0.11433,0.06368 -0.25057,0.07694 l -0.97512,0.09496 -0.0428,-0.439339 0.97512,-0.09497 q 0.0459,-0.0045 0.0841,-0.02519 0.0382,-0.02071 0.0644,-0.05263 0.0276,-0.0336 0.0406,-0.07504 0.013,-0.04144 0.008,-0.08736 -0.004,-0.04592 -0.0252,-0.08409 -0.0207,-0.03816 -0.0542,-0.06426 -0.0321,-0.02778 -0.0735,-0.04075 -0.0414,-0.01296 -0.0874,-0.0085 l -0.43934,0.04279 q -0.13624,0.01327 -0.26072,-0.02715 -0.12447,-0.04042 -0.22343,-0.120409 -0.0976,-0.08167 -0.16126,-0.196004 -0.0638,-0.115864 -0.0771,-0.252105 z"
           inkscape:connector-curvature="0" />
        <path
           id="path78"
           style="font-style:normal;font-variant:normal;font-weight:normal;font-stretch:normal;font-size:3.14990687px;font-family:Righteous;-inkscape-font-specification:Righteous;letter-spacing:0.24077083px;word-spacing:0.04497916px;fill:#ffffff;fill-opacity:1;stroke:none;stroke-width:0.23624301"
           d="m 116.2855,92.41173 -0.44123,0.01271 -0.0635,-2.204636 0.44123,-0.01271 0.0254,0.88247 0.88093,-0.02537 -0.0254,-0.882469 0.44124,-0.01271 0.0635,2.204636 -0.44124,0.01271 -0.0254,-0.880932 -0.88093,0.02537 z"
           inkscape:connector-curvature="0" />
        <path
           id="path80"
           style="font-style:normal;font-variant:normal;font-weight:normal;font-stretch:normal;font-size:3.14990687px;font-family:Righteous;-inkscape-font-specification:Righteous;letter-spacing:0.24077083px;word-spacing:0.04497916px;fill:#ffffff;fill-opacity:1;stroke:none;stroke-width:0.23624301"
           d="m 119.23175,90.663158 -0.0563,0.881036 0.44052,0.02817 q 0.0906,0.0058 0.17253,-0.02287 0.0821,-0.0302 0.14576,-0.08623 0.0637,-0.05603 0.10256,-0.13369 0.0405,-0.07909 0.0463,-0.169653 0.006,-0.09056 -0.0244,-0.172631 -0.0286,-0.08351 -0.0846,-0.147198 -0.056,-0.06369 -0.13369,-0.10256 -0.0776,-0.04041 -0.16812,-0.0462 z m -0.11256,1.760538 -0.44052,-0.02817 0.14073,-2.201055 0.88104,0.05633 q 0.12125,0.0078 0.23124,0.04715 0.11009,0.03786 0.20306,0.102371 0.0946,0.06307 0.16921,0.149526 0.0763,0.08502 0.12676,0.186882 0.052,0.101963 0.0756,0.215974 0.0251,0.114109 0.0173,0.235367 -0.0116,0.181119 -0.091,0.337867 -0.0793,0.155214 -0.20666,0.267282 -0.12737,0.112068 -0.29295,0.170834 -0.16405,0.05886 -0.34517,0.04728 l -0.44052,-0.02817 z"
           inkscape:connector-curvature="0" />
        <path
           id="path82"
           style="font-style:normal;font-variant:normal;font-weight:normal;font-stretch:normal;font-size:3.14990687px;font-family:Righteous;-inkscape-font-specification:Righteous;letter-spacing:0.24077083px;word-spacing:0.04497916px;fill:#ffffff;fill-opacity:1;stroke:none;stroke-width:0.23624301"
           d="m 121.21824,92.608401 -0.43849,-0.05074 0.25354,-2.190928 0.43849,0.05074 z"
           inkscape:connector-curvature="0" />
        <path
           id="path84"
           style="font-style:normal;font-variant:normal;font-weight:normal;font-stretch:normal;font-size:3.14990687px;font-family:Righteous;-inkscape-font-specification:Righteous;letter-spacing:0.24077083px;word-spacing:0.04497916px;fill:#ffffff;fill-opacity:1;stroke:none;stroke-width:0.23624301"
           d="m 123.26878,92.922743 -1.68438,-0.278372 1.21634,-1.587042 -0.92868,-0.153481 0.072,-0.43551 1.68438,0.278372 -1.2133,1.587543 0.92565,0.15298 z"
           inkscape:connector-curvature="0" />
        <path
           id="path86"
           style="font-style:normal;font-variant:normal;font-weight:normal;font-stretch:normal;font-size:3.14990687px;font-family:Righteous;-inkscape-font-specification:Righteous;letter-spacing:0.24077083px;word-spacing:0.04497916px;fill:#ffffff;fill-opacity:1;stroke:none;stroke-width:0.23624301"
           d="m 125.12069,93.344558 -1.66342,-0.384272 1.31421,-1.506994 -0.91713,-0.211869 0.0994,-0.43009 1.66342,0.384271 -1.31121,1.507687 0.91413,0.211176 z"
           inkscape:connector-curvature="0" />
        <path
           id="path88"
           style="font-style:normal;font-variant:normal;font-weight:normal;font-stretch:normal;font-size:3.14990687px;font-family:Righteous;-inkscape-font-specification:Righteous;letter-spacing:0.24077083px;word-spacing:0.04497916px;fill:#ffffff;fill-opacity:1;stroke:none;stroke-width:0.23624301"
           d="m 126.92401,92.957489 0.12749,-0.422608 q 0.0262,-0.08688 0.0154,-0.173664 -0.009,-0.08781 -0.049,-0.162566 -0.0401,-0.07475 -0.10838,-0.130689 -0.0663,-0.05696 -0.15323,-0.08317 -0.0869,-0.02621 -0.17513,-0.01588 -0.0863,0.0093 -0.1611,0.0494 -0.0748,0.0401 -0.13216,0.10793 -0.0555,0.0668 -0.0817,0.153675 l -0.12748,0.422608 z m 0.16809,0.971227 -0.42261,-0.127484 0.12749,-0.422608 -0.84522,-0.254966 -0.12748,0.422608 -0.42114,-0.127039 0.38201,-1.266352 q 0.0529,-0.175228 0.16531,-0.308379 0.11291,-0.134624 0.26094,-0.215276 0.1495,-0.08021 0.32263,-0.100275 0.1746,-0.01962 0.34983,0.03324 0.17522,0.05286 0.30838,0.165317 0.13462,0.112903 0.21483,0.262405 0.0802,0.149502 0.0998,0.324104 0.0201,0.173128 -0.0328,0.348356 z"
           inkscape:connector-curvature="0" />
      </g>
      <path
         id="path1233"
         d="m 41.344573,116.99399 c 0,0 59.663657,-47.62208 127.637927,0.0302"
         style="opacity:1;fill:none;stroke:none;stroke-width:0.81448406px;stroke-linecap:butt;stroke-linejoin:miter;stroke-opacity:1"
         inkscape:connector-curvature="0" />
      <path
         id="path1250"
         d="M 151.49397,71.508249 A 123.1346,123.1346 0 0 0 58.913867,71.976481 L 105.78016,185.84363 153.12867,72.258628 a 123.1346,123.1346 0 0 0 -1.6347,-0.750379 z"
         style="opacity:1;fill:none;fill-opacity:1;stroke:none;stroke-width:0.82879055"
         inkscape:connector-curvature="0" />
      <path
         id="path147"
         d="m 105.48768,133.46672 a 7.6867978,7.6867978 0 0 1 -7.686798,7.6868 7.6867978,7.6867978 0 0 1 -7.6868,-7.6868 7.6867978,7.6867978 0 0 1 7.6868,-7.68681 7.6867978,7.6867978 0 0 1 7.686798,7.68681 z"
         style="opacity:1;fill:#000000;fill-opacity:1;stroke:none;stroke-width:15.69966125;stroke-linecap:round;stroke-linejoin:miter;stroke-miterlimit:4;stroke-dasharray:none;stroke-opacity:1"
         inkscape:connector-curvature="0" />
      <path
         id="path151"
         d="m 115.55948,151.59007 a 5.9545608,5.9545608 0 0 1 -5.95458,5.95458 5.9545608,5.9545608 0 0 1 -5.95454,-5.95458 5.9545608,5.9545608 0 0 1 5.95454,-5.95454 5.9545608,5.9545608 0 0 1 5.95458,5.95454 z"
         style="opacity:1;fill:#000000;fill-opacity:1;stroke:none;stroke-width:8.46550274;stroke-linecap:round;stroke-linejoin:miter;stroke-miterlimit:4;stroke-dasharray:none;stroke-opacity:1"
         inkscape:connector-curvature="0" />
      <path
         id="path151-1"
         d="m 125.62268,121.6636 a 8.66118,8.66118 0 0 1 -8.66119,8.66119 8.66118,8.66118 0 0 1 -8.66117,-8.66119 8.66118,8.66118 0 0 1 8.66117,-8.66118 8.66118,8.66118 0 0 1 8.66119,8.66118 z"
         style="opacity:1;fill:#000000;fill-opacity:1;stroke:none;stroke-width:12.3134594;stroke-linecap:round;stroke-linejoin:miter;stroke-miterlimit:4;stroke-dasharray:none;stroke-opacity:1"
         inkscape:connector-curvature="0" />
      <g
         transform="matrix(-0.48829795,0,0,0.48829795,377.98729,-62.866185)"
         id="layer1-2"
         style="fill:#008000">
        <g
           id="g132"
           style="fill:#008000;fill-rule:nonzero;stroke:none;stroke-width:0.642259;stroke-linecap:butt;stroke-linejoin:miter;stroke-dasharray:none"
           transform="matrix(1.2500001,0,0,1.2500001,626.95511,376.52517)">
          <path
             id="path134"
             d="M 10.0107,39.0535 C 7.13161,38.8487 5.62645,37.8109 4.85338,36.6592 5.00155,33.8554 5.43084,30.3632 6.63731,27.1939 7.32897,25.379 8.31054,23.736 9.51466,22.5283 10.8312,21.0887 12.0477,19.981 13.2734,19.0676 c 2.4194,-1.7919 4.5419,-2.5725 5.2136,-2.8471 0.6794,-0.2621 1.8976,-0.7548 3.3717,-1.3034 1.4694,-0.5032 3.2492,-1.2314 4.7684,-2.1217 3.1146,-1.7031 5.6962,-3.625 5.6921,-3.6257 0.0052,7e-4 -2.755,1.5305 -5.9621,2.8003 -1.6182,0.6898 -3.2715,1.1433 -4.8147,1.5005 -1.5186,0.3906 -2.8012,0.7883 -3.5075,1.0615 C 16.7142,15.0834 8.80133,17.6154 4.75967,26.103 3.84546,28.2709 3.27209,30.5135 2.90078,32.6149 1.98715,32.0992 0.849796,31.1012 0.53998,29.2541 0,26.0359 0.300445,16.3791 9.05141,11.0147 17.803,5.65096 27.5736,6.723 32.2495,5.14988 36.9248,3.57675 38.7831,0 38.7831,0 c 0,0 -3.8964,36.4069 -28.7724,39.0535 z"
             style="fill:#008000"
             inkscape:connector-curvature="0" />
        </g>
      </g>
      <g
         style="fill:#008000"
         id="g195"
         transform="matrix(0.48829795,0,0,0.48829795,-166.97295,-62.866185)">
        <g
           transform="matrix(1.2500001,0,0,1.2500001,626.95511,376.52517)"
           style="fill:#008000;fill-rule:nonzero;stroke:none;stroke-width:0.642259;stroke-linecap:butt;stroke-linejoin:miter;stroke-dasharray:none"
           id="g193">
          <path
             style="fill:#008000"
             d="M 10.0107,39.0535 C 7.13161,38.8487 5.62645,37.8109 4.85338,36.6592 5.00155,33.8554 5.43084,30.3632 6.63731,27.1939 7.32897,25.379 8.31054,23.736 9.51466,22.5283 10.8312,21.0887 12.0477,19.981 13.2734,19.0676 c 2.4194,-1.7919 4.5419,-2.5725 5.2136,-2.8471 0.6794,-0.2621 1.8976,-0.7548 3.3717,-1.3034 1.4694,-0.5032 3.2492,-1.2314 4.7684,-2.1217 3.1146,-1.7031 5.6962,-3.625 5.6921,-3.6257 0.0052,7e-4 -2.755,1.5305 -5.9621,2.8003 -1.6182,0.6898 -3.2715,1.1433 -4.8147,1.5005 -1.5186,0.3906 -2.8012,0.7883 -3.5075,1.0615 C 16.7142,15.0834 8.80133,17.6154 4.75967,26.103 3.84546,28.2709 3.27209,30.5135 2.90078,32.6149 1.98715,32.0992 0.849796,31.1012 0.53998,29.2541 0,26.0359 0.300445,16.3791 9.05141,11.0147 17.803,5.65096 27.5736,6.723 32.2495,5.14988 36.9248,3.57675 38.7831,0 38.7831,0 c 0,0 -3.8964,36.4069 -28.7724,39.0535 z"
             id="path191"
             inkscape:connector-curvature="0" />
        </g>
      </g>
    </g>
  </g>
</svg>
