<?xml version="1.0" encoding="UTF-8" standalone="no"?>
<svg
   xmlns:dc="http://purl.org/dc/elements/1.1/"
   xmlns:cc="http://creativecommons.org/ns#"
   xmlns:rdf="http://www.w3.org/1999/02/22-rdf-syntax-ns#"
   xmlns:svg="http://www.w3.org/2000/svg"
   xmlns="http://www.w3.org/2000/svg"
   xmlns:sodipodi="http://sodipodi.sourceforge.net/DTD/sodipodi-0.dtd"
   xmlns:inkscape="http://www.inkscape.org/namespaces/inkscape"
   id="svg8"
   version="1.1"
   viewBox="0 0 58.582993 48.907143"
   height="48.907143mm"
   width="58.582993mm"
   sodipodi:docname="logo_transparent.svg"
   inkscape:version="0.92.2 (5c3e80d, 2017-08-06)">
  <sodipodi:namedview
     pagecolor="#ffffff"
     bordercolor="#666666"
     borderopacity="1"
     objecttolerance="10"
     gridtolerance="10"
     guidetolerance="10"
     inkscape:pageopacity="0"
     inkscape:pageshadow="2"
     inkscape:window-width="1280"
     inkscape:window-height="971"
     id="namedview42"
     showgrid="false"
     inkscape:zoom="1.2767392"
     inkscape:cx="110.70802"
     inkscape:cy="92.422947"
     inkscape:window-x="-8"
     inkscape:window-y="161"
     inkscape:window-maximized="1"
     inkscape:current-layer="svg8" />
  <defs
     id="defs2" />
  <metadata
     id="metadata5">
    <rdf:RDF>
      <cc:Work
         rdf:about="">
        <dc:format>image/svg+xml</dc:format>
        <dc:type
           rdf:resource="http://purl.org/dc/dcmitype/StillImage" />
        <dc:title />
      </cc:Work>
    </rdf:RDF>
  </metadata>
  <flowRoot
     xml:space="preserve"
     id="flowRoot51"
     style="font-style:normal;font-weight:normal;font-size:40px;line-height:1.25;font-family:sans-serif;letter-spacing:0px;word-spacing:0px;fill:#000000;fill-opacity:1;stroke:none"
     transform="translate(-88.486587,-76.098878)"><flowRegion
       id="flowRegion53"><rect
         id="rect55"
         width="157.8125"
         height="58.59375"
         x="366.79688"
         y="285.80093" /></flowRegion><flowPara
       id="flowPara57" /></flowRoot>  <g
     id="text1226"
     style="font-style:normal;font-weight:normal;font-size:9.44972038px;line-height:1.25;font-family:sans-serif;letter-spacing:0.24077083px;word-spacing:0.04497916px;fill:#4d4d4d;fill-opacity:1;stroke:none;stroke-width:0.23624301"
     aria-label="FRESH PIZZA"
     transform="translate(-88.486587,-76.098878)" />
  <g
     id="g1776">
    <path
       id="path1371"
       d="m 32.225143,39.632072 c 3.30773,-2.02469 3.60715,-2.2793 3.61371,-2.28119 0.006,-10e-4 0.32004,0.0729 0.69664,0.16624 0.37661,0.0933 0.69231,0.17081 0.70158,0.17221 0.019,0.003 0.0229,6.6e-4 0.58107,-0.30822 1.97215,-1.09181 0.57978,-0.24386 2.06819,-1.20362 3.00589,-1.93821 4.98273,-3.58748 5.71681,-4.76951 0.0868,-0.13983 0.15485,-0.28036 0.20246,-0.41834 0.0332,-0.0963 0.0482,-0.16448 0.0498,-0.22644 6.3e-4,-0.0247 0.002,-0.0434 0.004,-0.0416 10e-4,10e-4 0.002,-0.002 10e-4,-0.008 -7.2e-4,-0.014 -0.0331,-0.0705 -0.0534,-0.0931 -0.008,-0.009 -0.0146,-0.0149 -0.0137,-0.0122 7.2e-4,0.003 -0.0115,-0.006 -0.0276,-0.0187 -0.0489,-0.0393 -0.0896,-0.0582 -0.15309,-0.0712 -0.0708,-0.0144 -0.12196,-0.016 -0.19954,-0.006 -0.13806,0.0172 -0.30804,0.0729 -0.47341,0.15498 -0.0368,0.0182 -2.57697,1.50076 -6.38685,3.72733 l -5.30275,3.07583 c -0.89939,1.05324 -1.02492,2.16153 -1.02492,2.16153 z"
       style="fill:#ffffff;stroke-width:0.00543137"
       inkscape:connector-curvature="0" />
    <path
       id="path1369"
       d="m 40.174253,46.813832 c 0.0827,-0.25582 0.009,-0.52636 -0.22061,-0.80623 -0.25416,-0.31007 -0.67404,-0.64025 -1.33835,-1.05244 -0.18723,-0.11615 -0.71495,-0.41716 -0.90117,-0.51369 -0.50114,-0.26026 -2.52752,-1.35032 -4.99224,-2.68552 l -1.18615,-0.58239 c 0,0 -0.87214,-0.15575 -0.42844,0.81821 0,0 -0.28855,0.4293 0.8662,1.10994 1.37407,0.80991 2.90651,1.79935 3.93307,2.41954 0.58912,0.35595 1.07817,0.65252 1.08677,0.65902 0.009,0.007 0.0743,0.0502 0.14626,0.0967 0.86185,0.55967 1.59012,0.89139 2.1287,0.96968 0.16886,0.0246 0.2954,0.0231 0.43604,-0.006 0.097,-0.0194 0.13899,-0.0347 0.20992,-0.077 0.0862,-0.0512 0.10819,-0.075 0.17949,-0.19395 0.0502,-0.0843 0.0651,-0.11333 0.0794,-0.15696 z"
       style="fill:#ffffff;stroke-width:0.00595922"
       inkscape:connector-curvature="0" />
    <path
       id="path25-4"
       d="M 28.961021,5.1676564e-4 C 23.538221,0.02794676 18.119419,1.0943513 13.011609,3.196704 l -2.278414,0.9379273 1.268139,3.0809488 C 8.5647455,8.7693626 5.3169161,10.7949 2.3528279,13.262239 l -0.6273518,0.521932 6.2213255,8.117851 0.671277,-0.515214 0.00103,-10e-4 C 10.92063,19.630591 13.426072,18.193048 16.066719,17.09353 L 29.161009,48.907091 42.3292,17.317806 c 2.453457,1.071007 4.784193,2.436827 6.936526,4.080371 v 5.29e-4 l 0.674378,0.513664 6.251815,-8.157642 -0.627353,-0.521932 h -5.29e-4 C 52.752138,10.89749 49.686434,8.95791 46.446778,7.4419229 l 1.295011,-3.1073039 -2.140955,-0.999422 -0.0011,-5.292e-4 c -0.182858,-0.08556 -0.369919,-0.1723149 -0.562239,-0.258899 l -0.02997,-0.013436 -0.03876,-0.014986 -0.01707,-0.00723 -0.01085,-0.00465 C 39.812237,0.98493989 34.383874,-0.02691024 28.961021,5.1676564e-4 Z M 28.934669,1.2329996 c 0.329083,-0.00166 0.657968,4.975e-4 0.987017,0.00672 1.97448,0.037298 3.946838,0.2168074 5.901966,0.5379516 0.325826,0.053519 0.650867,0.1106811 0.975651,0.1720825 0.324953,0.061429 0.649303,0.1270516 0.973068,0.1963705 0.323599,0.069283 0.646147,0.1424601 0.968418,0.2196248 0.644699,0.1543606 1.286433,0.3241458 1.924947,0.5100465 0.638349,0.1858534 1.273262,0.3877561 1.904275,0.6051309 0.631012,0.2173748 1.257985,0.4502886 1.880504,0.6991821 l 0.02326,0.00982 0.02532,0.00982 c 0.183078,0.082423 0.364887,0.167091 0.546735,0.252181 l 1.070737,0.4997111 -0.82269,1.9730061 -0.510561,1.2247313 -0.0016,0.00414 c 0.386051,0.1677035 0.770628,0.3394583 1.151866,0.5193482 2.984085,1.4081158 5.817039,3.1864738 8.433078,5.3123368 l -4.693253,6.124691 c -2.137849,-1.588178 -4.437557,-2.919283 -6.850229,-3.977018 -0.0044,-0.002 -0.009,-0.0037 -0.01344,-0.0057 -0.381267,-0.16696 -0.765109,-0.327428 -1.151866,-0.480591 L 41.162819,16.835151 29.135689,45.686101 17.185514,16.65118 16.695105,15.459521 c -0.369534,0.140078 -0.736498,0.287178 -1.101225,0.439767 -0.0053,0.0022 -0.01074,0.004 -0.01602,0.0062 -2.601416,1.089838 -5.076641,2.495575 -7.3669916,4.195092 L 3.5506877,14.016198 C 6.3188299,11.761515 9.3301639,9.8950998 12.507764,8.4465127 12.872971,8.2800213 13.241051,8.1207879 13.610538,7.9654052 L 13.610009,7.9643734 13.104097,6.7344744 12.30983,4.8053931 13.448262,4.336688 C 18.408035,2.2952642 23.669318,1.2596297 28.934669,1.2329996 Z"
       style="opacity:1;fill:#ffffff;fill-opacity:1;stroke-width:0.26923075"
       inkscape:connector-curvature="0" />
    <g
       transform="translate(-88.486587,-76.098878)"
       aria-label="MANHATTAN"
       style="font-style:normal;font-weight:normal;font-size:10.58333302px;line-height:1.25;font-family:sans-serif;letter-spacing:0.09789583px;word-spacing:0px;opacity:1;fill:#ffffff;fill-opacity:1;stroke:none;stroke-width:0.26458332"
       id="text1160">
      <path
         d="m 100.95755,91.72962 -0.85129,0.496105 -1.776261,-3.047966 q -0.05204,-0.0893 -0.132858,-0.14587 -0.07784,-0.05831 -0.170331,-0.08017 -0.09125,-0.02657 -0.187717,-0.01421 -0.09647,0.01236 -0.185767,0.0644 -0.0893,0.05204 -0.147605,0.129881 -0.05831,0.07784 -0.08315,0.172066 -0.0236,0.08951 -0.01124,0.185983 0.01236,0.09647 0.0644,0.185766 l 1.776266,3.047966 -0.854264,0.49784 -1.776266,-3.047965 q -0.05204,-0.0893 -0.129881,-0.147605 -0.07784,-0.05831 -0.170331,-0.08017 -0.09125,-0.02657 -0.187718,-0.01421 -0.09647,0.01236 -0.185766,0.0644 -0.0893,0.05204 -0.147605,0.129881 -0.05831,0.07784 -0.08315,0.172066 -0.0236,0.08951 -0.01124,0.185982 0.01236,0.09647 0.0644,0.185767 l 1.776266,3.047966 -0.854264,0.49784 -1.776266,-3.047966 q -0.154382,-0.264911 -0.191458,-0.554323 -0.03584,-0.294124 0.03619,-0.567371 0.07327,-0.277959 0.248198,-0.511486 0.176169,-0.238238 0.44108,-0.39262 0.238122,-0.138771 0.50869,-0.180815 0.268832,-0.04502 0.538118,0.01337 0.08195,-0.263076 0.250662,-0.473047 0.169958,-0.214682 0.408081,-0.353453 0.264911,-0.154382 0.556058,-0.188482 0.292388,-0.03881 0.567371,0.0362 0.276224,0.0703 0.511485,0.248198 0.236504,0.173192 0.390886,0.438103 z"
         style="font-style:normal;font-variant:normal;font-weight:bold;font-stretch:normal;font-size:7.05555534px;font-family:Righteous;-inkscape-font-specification:'Righteous Bold';letter-spacing:0.10583333px;word-spacing:0px;fill:#ffffff;fill-opacity:1;stroke-width:0.26458332"
         id="path115"
         inkscape:connector-curvature="0" />
      <path
         d="M 104.03914,88.323179 103.6705,87.40573 q -0.0758,-0.188604 -0.2161,-0.325289 -0.13841,-0.141166 -0.31317,-0.215742 -0.17477,-0.07458 -0.37245,-0.07683 -0.19577,-0.0067 -0.38437,0.06905 -0.18861,0.07578 -0.32849,0.217385 -0.13797,0.13712 -0.21255,0.311886 -0.0746,0.174765 -0.08,0.373732 -0.004,0.194486 0.0722,0.383091 l 0.36865,0.917449 z m 1.65346,1.463057 -0.91745,0.368645 -0.36865,-0.917449 -1.83489,0.737288 0.36864,0.917449 -0.91425,0.36736 -1.10465,-2.74915 q -0.15285,-0.380406 -0.14259,-0.770663 0.009,-0.393453 0.15494,-0.741699 0.14915,-0.349531 0.42381,-0.626967 0.27785,-0.278721 0.65825,-0.431574 0.38041,-0.152852 0.77066,-0.142587 0.39346,0.009 0.74299,0.158134 0.34953,0.149152 0.62825,0.427003 0.27744,0.274654 0.43029,0.65506 z"
         style="font-style:normal;font-variant:normal;font-weight:bold;font-stretch:normal;font-size:7.05555534px;font-family:Righteous;-inkscape-font-specification:'Righteous Bold';letter-spacing:0.10583333px;word-spacing:0px;fill:#ffffff;fill-opacity:1;stroke-width:0.26458332"
         id="path117"
         inkscape:connector-curvature="0" />
      <path
         d="m 110.63391,88.440826 -1.02477,0.261629 -2.65042,-2.679826 0.80449,3.151097 -0.95802,0.244585 -1.22206,-4.786731 1.02477,-0.261628 2.65127,2.683164 -0.80534,-3.154436 0.95801,-0.244584 z"
         style="font-style:normal;font-variant:normal;font-weight:bold;font-stretch:normal;font-size:7.05555534px;font-family:Righteous;-inkscape-font-specification:'Righteous Bold';letter-spacing:0.10583333px;word-spacing:0px;fill:#ffffff;fill-opacity:1;stroke-width:0.26458332"
         id="path119"
         inkscape:connector-curvature="0" />
      <path
         d="m 112.83698,88.108254 -0.98298,0.106557 -0.53242,-4.911494 0.98299,-0.106557 0.21311,1.965967 1.96254,-0.212742 -0.21311,-1.965968 0.98298,-0.106556 0.53242,4.911493 -0.98299,0.106557 -0.21274,-1.962542 -1.96254,0.212742 z"
         style="font-style:normal;font-variant:normal;font-weight:bold;font-stretch:normal;font-size:7.05555534px;font-family:Righteous;-inkscape-font-specification:'Righteous Bold';letter-spacing:0.10583333px;word-spacing:0px;fill:#ffffff;fill-opacity:1;stroke-width:0.26458332"
         id="path121"
         inkscape:connector-curvature="0" />
      <path
         d="m 120.01384,85.889219 0.0383,-0.988002 q 0.008,-0.203108 -0.0644,-0.385185 -0.0687,-0.185386 -0.19773,-0.324844 -0.12906,-0.139457 -0.30858,-0.222257 -0.17594,-0.08611 -0.37905,-0.09398 -0.20311,-0.0079 -0.38863,0.06425 -0.18194,0.0688 -0.3214,0.197862 -0.13945,0.129059 -0.2257,0.308446 -0.0827,0.176078 -0.0905,0.379186 l -0.0383,0.988002 z m 0.91162,2.010821 -0.988,-0.03826 0.0383,-0.988002 -1.97601,-0.07652 -0.0383,0.988002 -0.98456,-0.03813 0.11465,-2.960563 q 0.0159,-0.409659 0.18464,-0.761682 0.16891,-0.355465 0.44438,-0.613717 0.27892,-0.258118 0.64294,-0.399167 0.36746,-0.140915 0.77712,-0.125052 0.40966,0.01586 0.76168,0.184642 0.35547,0.16891 0.61359,0.447825 0.25811,0.278914 0.39903,0.646377 0.14105,0.36402 0.12518,0.77368 z"
         style="font-style:normal;font-variant:normal;font-weight:bold;font-stretch:normal;font-size:7.05555534px;font-family:Righteous;-inkscape-font-specification:'Righteous Bold';letter-spacing:0.10583333px;word-spacing:0px;fill:#ffffff;fill-opacity:1;stroke-width:0.26458332"
         id="path123"
         inkscape:connector-curvature="0" />
      <path
         d="m 123.99114,88.396927 -0.97031,-0.171203 0.68661,-3.891416 -1.46225,-0.258001 0.1718,-0.973702 3.89142,0.686607 -0.17181,0.973702 -1.45885,-0.257403 z"
         style="font-style:normal;font-variant:normal;font-weight:bold;font-stretch:normal;font-size:7.05555534px;font-family:Righteous;-inkscape-font-specification:'Righteous Bold';letter-spacing:0.10583333px;word-spacing:0px;fill:#ffffff;fill-opacity:1;stroke-width:0.26458332"
         id="path125"
         inkscape:connector-curvature="0" />
      <path
         d="m 128.23135,89.480863 -0.94208,-0.288638 1.15759,-3.778168 -1.4197,-0.434976 0.28965,-0.945365 3.77817,1.157582 -0.28965,0.945365 -1.4164,-0.433967 z"
         style="font-style:normal;font-variant:normal;font-weight:bold;font-stretch:normal;font-size:7.05555534px;font-family:Righteous;-inkscape-font-specification:'Righteous Bold';letter-spacing:0.10583333px;word-spacing:0px;fill:#ffffff;fill-opacity:1;stroke-width:0.26458332"
         id="path127"
         inkscape:connector-curvature="0" />
      <path
         d="m 133.74266,89.552372 0.40496,-0.902009 q 0.0833,-0.185431 0.0843,-0.381314 0.006,-0.197615 -0.0619,-0.375217 -0.0675,-0.177602 -0.20307,-0.321528 -0.13098,-0.145659 -0.31641,-0.228908 -0.18543,-0.08325 -0.38446,-0.08575 -0.19447,-0.0042 -0.37207,0.06332 -0.1776,0.06754 -0.32467,0.201664 -0.14252,0.132388 -0.22577,0.317819 l -0.40496,0.902009 z m 0.0935,2.205834 -0.90201,-0.404957 0.40496,-0.90201 -1.80402,-0.809914 -0.40496,0.902009 -0.89887,-0.403546 1.21346,-2.702886 q 0.16791,-0.374004 0.45609,-0.637369 0.28958,-0.266509 0.64164,-0.403007 0.35521,-0.135087 0.74556,-0.129773 0.3935,0.0067 0.76751,0.174634 0.374,0.167909 0.63736,0.456083 0.26651,0.289585 0.4016,0.644789 0.13509,0.355203 0.12836,0.748702 -0.005,0.390355 -0.17322,0.764359 z"
         style="font-style:normal;font-variant:normal;font-weight:bold;font-stretch:normal;font-size:7.05555534px;font-family:Righteous;-inkscape-font-specification:'Righteous Bold';letter-spacing:0.10583333px;word-spacing:0px;fill:#ffffff;fill-opacity:1;stroke-width:0.26458332"
         id="path129"
         inkscape:connector-curvature="0" />
      <path
         d="m 138.24113,94.35501 -0.90421,-0.54865 0.0583,-3.768655 -1.68705,2.780372 -0.8453,-0.512907 2.56274,-4.223573 0.90421,0.548649 -0.0601,3.771601 1.68884,-2.783317 0.8453,0.512906 z"
         style="font-style:normal;font-variant:normal;font-weight:bold;font-stretch:normal;font-size:7.05555534px;font-family:Righteous;-inkscape-font-specification:'Righteous Bold';letter-spacing:0.10583333px;word-spacing:0px;fill:#ffffff;fill-opacity:1;stroke-width:0.26458332"
         id="path131"
         inkscape:connector-curvature="0" />
    </g>
    <path
       id="path1165"
       d="m 8.210677,20.10034 c 0,0 19.381606,-15.469925 41.462896,0.0098"
       style="opacity:1;fill:none;stroke:none;stroke-width:0.26458332px;stroke-linecap:butt;stroke-linejoin:miter;stroke-opacity:1"
       inkscape:connector-curvature="0" />
    <path
       style="opacity:1;fill:none;stroke:none;stroke-width:0.26458332px;stroke-linecap:butt;stroke-linejoin:miter;stroke-opacity:1"
       d="m 8.210677,20.10034 c 0,0 19.381606,-15.469925 41.462896,0.0098"
       id="path1233"
       inkscape:connector-curvature="0" />
    <path
       style="opacity:1;fill:none;fill-opacity:1;stroke:none;stroke-width:0.26923075"
       d="M 43.992463,5.3244 A 39.999999,39.999999 0 0 0 13.918023,5.476504 L 29.142433,42.465992 44.523493,5.568159 A 39.999999,39.999999 0 0 0 43.992463,5.3244 Z"
       id="path1250"
       inkscape:connector-curvature="0" />
    <path
       id="path1288"
       d="m 4.282943,11.019694 c 0,0 -1.537467,-0.38169 -1.822996,-2.069158 C 2.174417,7.263066 0,7.283156 0,7.283156 c 0,0 1.713178,0.441956 1.95478,2.169602 0.241601,1.727646 2.328163,1.566936 2.328163,1.566936 z"
       style="fill:none;stroke:none;stroke-width:0.33608726px;stroke-linecap:butt;stroke-linejoin:miter;stroke-opacity:1"
       inkscape:connector-curvature="0" />
    <path
       id="path1288-9"
       d="m 7.317384,8.984087 c 0,0 -1.537467,-0.38169 -1.822996,-2.069158 -0.28553,-1.68747 -2.459947,-1.66738 -2.459947,-1.66738 0,0 1.713178,0.441956 1.95478,2.169602 0.241601,1.727645 2.328163,1.566936 2.328163,1.566936 z"
       style="fill:none;stroke:none;stroke-width:0.33608726px;stroke-linecap:butt;stroke-linejoin:miter;stroke-opacity:1"
       inkscape:connector-curvature="0" />
    <path
       style="fill:none;stroke:none;stroke-width:0.33608726px;stroke-linecap:butt;stroke-linejoin:miter;stroke-opacity:1"
       d="m 10.55853,7.264295 c 0,0 -1.537467,-0.38169 -1.822996,-2.069158 -0.28553,-1.68747 -2.459947,-1.66738 -2.459947,-1.66738 0,0 1.713178,0.441956 1.95478,2.169602 0.241601,1.727645 2.328163,1.566936 2.328163,1.566936 z"
       id="path1314"
       inkscape:connector-curvature="0" />
    <path
       style="fill:none;stroke:none;stroke-width:0.33608726px;stroke-linecap:butt;stroke-linejoin:miter;stroke-opacity:1"
       d="m 54.300053,11.514783 c 0,0 1.53747,-0.38169 1.82299,-2.069158 0.28553,-1.68747 2.45995,-1.66738 2.45995,-1.66738 0,0 -1.71318,0.441956 -1.95478,2.169602 -0.2416,1.727646 -2.32816,1.566936 -2.32816,1.566936 z"
       id="path1316"
       inkscape:connector-curvature="0" />
    <path
       style="fill:none;stroke:none;stroke-width:0.33608726px;stroke-linecap:butt;stroke-linejoin:miter;stroke-opacity:1"
       d="m 51.265613,9.479176 c 0,0 1.53746,-0.38169 1.82299,-2.069158 0.28553,-1.68747 2.45995,-1.66738 2.45995,-1.66738 0,0 -1.71318,0.441956 -1.95478,2.169602 -0.2416,1.727645 -2.32816,1.566936 -2.32816,1.566936 z"
       id="path1318"
       inkscape:connector-curvature="0" />
    <path
       id="path1320"
       d="m 48.024463,7.759384 c 0,0 1.53747,-0.38169 1.823,-2.069158 0.28553,-1.68747 2.45994,-1.66738 2.45994,-1.66738 0,0 -1.71317,0.441956 -1.95478,2.169602 -0.2416,1.727645 -2.32816,1.566936 -2.32816,1.566936 z"
       style="fill:none;stroke:none;stroke-width:0.33608726px;stroke-linecap:butt;stroke-linejoin:miter;stroke-opacity:1"
       inkscape:connector-curvature="0" />
    <g
       style="fill:#ffffff"
       id="layer1-2"
       transform="matrix(-0.1586225,0,0,0.1586225,117.56831,-38.326835)">
      <g
         transform="matrix(1.2500001,0,0,1.2500001,626.95511,376.52517)"
         style="fill:#ffffff;fill-rule:nonzero;stroke:none;stroke-width:0.642259;stroke-linecap:butt;stroke-linejoin:miter;stroke-dasharray:none"
         id="g132">
        <path
           style="fill:#ffffff"
           d="M 10.0107,39.0535 C 7.13161,38.8487 5.62645,37.8109 4.85338,36.6592 5.00155,33.8554 5.43084,30.3632 6.63731,27.1939 7.32897,25.379 8.31054,23.736 9.51466,22.5283 10.8312,21.0887 12.0477,19.981 13.2734,19.0676 c 2.4194,-1.7919 4.5419,-2.5725 5.2136,-2.8471 0.6794,-0.2621 1.8976,-0.7548 3.3717,-1.3034 1.4694,-0.5032 3.2492,-1.2314 4.7684,-2.1217 3.1146,-1.7031 5.6962,-3.625 5.6921,-3.6257 0.0052,7e-4 -2.755,1.5305 -5.9621,2.8003 -1.6182,0.6898 -3.2715,1.1433 -4.8147,1.5005 -1.5186,0.3906 -2.8012,0.7883 -3.5075,1.0615 C 16.7142,15.0834 8.80133,17.6154 4.75967,26.103 3.84546,28.2709 3.27209,30.5135 2.90078,32.6149 1.98715,32.0992 0.849796,31.1012 0.53998,29.2541 0,26.0359 0.300445,16.3791 9.05141,11.0147 17.803,5.65096 27.5736,6.723 32.2495,5.14988 36.9248,3.57675 38.7831,0 38.7831,0 c 0,0 -3.8964,36.4069 -28.7724,39.0535 z"
           id="path134"
           inkscape:connector-curvature="0" />
      </g>
    </g>
    <g
       transform="matrix(0.1586225,0,0,0.1586225,-59.460805,-38.326835)"
       id="g195"
       style="fill:#ffffff">
      <g
         id="g193"
         style="fill:#ffffff;fill-rule:nonzero;stroke:none;stroke-width:0.642259;stroke-linecap:butt;stroke-linejoin:miter;stroke-dasharray:none"
         transform="matrix(1.2500001,0,0,1.2500001,626.95511,376.52517)">
        <path
           id="path191"
           d="M 10.0107,39.0535 C 7.13161,38.8487 5.62645,37.8109 4.85338,36.6592 5.00155,33.8554 5.43084,30.3632 6.63731,27.1939 7.32897,25.379 8.31054,23.736 9.51466,22.5283 10.8312,21.0887 12.0477,19.981 13.2734,19.0676 c 2.4194,-1.7919 4.5419,-2.5725 5.2136,-2.8471 0.6794,-0.2621 1.8976,-0.7548 3.3717,-1.3034 1.4694,-0.5032 3.2492,-1.2314 4.7684,-2.1217 3.1146,-1.7031 5.6962,-3.625 5.6921,-3.6257 0.0052,7e-4 -2.755,1.5305 -5.9621,2.8003 -1.6182,0.6898 -3.2715,1.1433 -4.8147,1.5005 -1.5186,0.3906 -2.8012,0.7883 -3.5075,1.0615 C 16.7142,15.0834 8.80133,17.6154 4.75967,26.103 3.84546,28.2709 3.27209,30.5135 2.90078,32.6149 1.98715,32.0992 0.849796,31.1012 0.53998,29.2541 0,26.0359 0.300445,16.3791 9.05141,11.0147 17.803,5.65096 27.5736,6.723 32.2495,5.14988 36.9248,3.57675 38.7831,0 38.7831,0 c 0,0 -3.8964,36.4069 -28.7724,39.0535 z"
           style="fill:#ffffff"
           inkscape:connector-curvature="0" />
      </g>
    </g>
    <path
       id="path25-4-4"
       d="M 28.356925,2.4737508 A 39.999999,39.999999 0 0 0 13.918013,5.4766683 l 0.834058,2.0262328 c 4.51398,-1.7382063 9.313968,-2.6544669 14.196549,-2.6623697 5.061636,0.00108 10.035871,0.9796904 14.695744,2.837036 L 44.523379,5.5681355 A 39.999999,39.999999 0 0 0 43.992662,5.3242228 39.999999,39.999999 0 0 0 28.356925,2.4737508 Z M 28.94862,13.201778 c -3.800881,0.0046 -7.543458,0.637899 -11.092863,1.841748 L 29.142407,42.46614 40.503469,15.211475 C 36.818453,13.90065 32.91509,13.209893 28.94862,13.201778 Z m 0.109038,0.868164 0.06356,2.205033 -0.441317,0.0124 -0.02532,-0.881083 -0.881084,0.02584 0.02532,0.880566 -0.441317,0.01292 -0.06356,-2.204517 0.441317,-0.01292 0.02532,0.882634 0.881081,-0.02532 -0.02532,-0.882633 z m 1.275374,0.02584 0.880567,0.05633 c 0.08083,0.0052 0.158184,0.02079 0.231511,0.04703 0.07339,0.02524 0.141107,0.05931 0.203086,0.102319 0.06307,0.04205 0.119242,0.09171 0.168984,0.149345 0.05087,0.05668 0.09348,0.119161 0.127124,0.187069 0.03467,0.06798 0.05971,0.14 0.07545,0.216007 0.01672,0.07607 0.02225,0.154289 0.01704,0.235128 -0.0077,0.120746 -0.03801,0.233465 -0.09095,0.337964 -0.05287,0.103476 -0.121798,0.192455 -0.206706,0.267167 -0.08491,0.07471 -0.182099,0.131872 -0.292486,0.171049 -0.109368,0.03924 -0.224454,0.05475 -0.345199,0.04703 l -0.440801,-0.02791 -0.02791,0.440284 -0.440799,-0.02791 z m -3.602882,0.0646 0.04289,0.439249 -1.007173,0.09818 c -0.0306,0.003 -0.05877,0.01153 -0.08423,0.02532 -0.02547,0.01381 -0.04723,0.03186 -0.06563,0.05426 -0.01753,0.02128 -0.03067,0.04575 -0.03927,0.07338 -0.0087,0.02763 -0.01109,0.05672 -0.0078,0.08733 0.0027,0.03061 0.01112,0.0588 0.02532,0.08527 0.0138,0.02544 0.03131,0.04763 0.05271,0.06615 0.02227,0.0174 0.04726,0.03063 0.07493,0.03927 0.0276,0.0086 0.05667,0.01124 0.08733,0.0083 l 0.43925,-0.04289 c 0.09083,-0.0088 0.177986,4.5e-4 0.260966,0.02739 0.0839,0.02583 0.158181,0.06596 0.223242,0.120407 0.066,0.05333 0.11973,0.118511 0.16123,0.195853 0.04247,0.07622 0.0682,0.159803 0.077,0.250631 0.0089,0.09083 -2.65e-4,0.177468 -0.02739,0.260449 -0.02593,0.08288 -0.06606,0.157684 -0.120404,0.223759 -0.0534,0.06495 -0.118581,0.118679 -0.195855,0.161231 -0.07622,0.04245 -0.159803,0.06816 -0.25063,0.077 l -0.975135,0.09509 -0.04289,-0.439766 0.975134,-0.09457 c 0.0306,-0.003 0.05877,-0.01153 0.08423,-0.02532 0.02547,-0.01381 0.04713,-0.03143 0.0646,-0.05271 0.01839,-0.0224 0.03164,-0.0473 0.04031,-0.07493 0.0087,-0.02763 0.01159,-0.05672 0.0083,-0.08733 -0.0027,-0.03061 -0.01119,-0.05879 -0.02532,-0.08423 -0.01381,-0.02544 -0.03193,-0.04668 -0.05426,-0.06408 -0.0214,-0.01852 -0.04578,-0.03218 -0.07338,-0.04082 -0.0276,-0.0086 -0.05667,-0.01176 -0.08733,-0.0088 l -0.439767,0.04289 c -0.09083,0.0088 -0.177462,7.5e-5 -0.260449,-0.02687 -0.08298,-0.02695 -0.157269,-0.06708 -0.223242,-0.120406 -0.06507,-0.05445 -0.119308,-0.120148 -0.161748,-0.19637 -0.04245,-0.0771 -0.06808,-0.161035 -0.077,-0.251665 -0.0088,-0.09064 4.5e-4,-0.178146 0.02739,-0.260965 0.02693,-0.08298 0.06697,-0.156737 0.120406,-0.221692 0.05433,-0.06607 0.119621,-0.120329 0.195854,-0.162781 0.07623,-0.04245 0.159804,-0.06816 0.250631,-0.077 z m 5.816701,0.107487 0.438216,0.05064 -0.253215,2.19108 -0.438734,-0.05064 z m -7.822779,0.101285 0.06976,0.436149 -1.0573,0.168982 0.06976,0.435633 0.715202,-0.114205 0.06976,0.435632 -0.715201,0.114722 0.06925,0.434082 1.0573,-0.168982 0.06925,0.436149 -1.492932,0.238228 -0.347782,-2.177644 z m 8.733316,5.3e-4 1.684652,0.278019 -1.213361,1.5875 0.925523,0.152962 -0.07183,0.435632 -1.684652,-0.278536 1.216464,-1.586983 -0.928627,-0.153479 z m -2.71198,0.19482 -0.05633,0.881083 0.440285,0.02791 c 0.0604,0.0039 0.117978,-0.0036 0.172599,-0.02274 0.05473,-0.02013 0.103288,-0.04895 0.145727,-0.0863 0.04247,-0.03735 0.07641,-0.08207 0.10232,-0.133842 0.027,-0.05273 0.04264,-0.109123 0.04651,-0.169498 0.004,-0.06037 -0.004,-0.117886 -0.02429,-0.1726 -0.01908,-0.05567 -0.04742,-0.104819 -0.08475,-0.147277 -0.03733,-0.04246 -0.08205,-0.07641 -0.133842,-0.10232 -0.05173,-0.02694 -0.107601,-0.04265 -0.167947,-0.04651 z m 4.721678,0.147794 1.663464,0.384473 -1.311031,1.507918 0.914156,0.21084 -0.09974,0.429948 -1.663462,-0.383956 1.314646,-1.506885 -0.917255,-0.211873 z m -13.333554,0.151929 c 0.07753,0.0037 0.152206,0.01745 0.223759,0.04134 0.07233,0.02268 0.140732,0.05474 0.204639,0.09612 0.06467,0.04015 0.122253,0.08843 0.173633,0.144178 0.05233,0.05552 0.09693,0.117474 0.133325,0.186035 0.0374,0.06833 0.06502,0.142129 0.08268,0.221175 0.0166,0.07404 0.02297,0.147911 0.01964,0.222209 -0.002,0.07407 -0.01342,0.146678 -0.03462,0.217557 -0.01987,0.07066 -0.04913,0.13782 -0.08733,0.202055 -0.03813,0.06423 -0.08363,0.122781 -0.136943,0.1757 l 0.364836,0.50953 -0.457854,0.102836 -0.284737,-0.391708 -0.481107,0.110588 0.09663,0.430981 -0.430982,0.09612 -0.482141,-2.151807 0.861446,-0.19327 c 0.07904,-0.01771 0.157381,-0.02429 0.235128,-0.01964 z m -1.501717,0.315743 0.121957,0.424263 -1.059884,0.304375 0.121956,0.424263 0.635621,-0.182934 0.121956,0.424263 -0.63562,0.182935 0.243396,0.846976 -0.424264,0.121957 -0.609265,-2.119767 z m 1.451075,0.124023 c -0.02906,4.77e-4 -0.05834,0.0042 -0.08785,0.01085 l -0.430981,0.09612 0.19327,0.861963 0.430465,-0.09663 c 0.059,-0.01322 0.11203,-0.03661 0.159163,-0.07028 0.04687,-0.03467 0.08546,-0.07626 0.115755,-0.124023 0.03027,-0.04776 0.05058,-0.09962 0.06098,-0.15658 0.01113,-0.05819 0.01055,-0.117185 -0.0026,-0.176217 -0.0132,-0.05903 -0.03716,-0.11177 -0.07183,-0.158646 -0.03387,-0.0481 -0.07469,-0.08754 -0.122473,-0.117823 -0.04773,-0.03028 -0.10011,-0.05062 -0.157096,-0.06098 -0.0286,-0.0057 -0.05776,-0.0082 -0.08682,-0.0078 z m 16.139067,0.124527 c 0.0583,0.0055 0.116771,0.017 0.175183,0.03462 0.116813,0.03524 0.219734,0.09039 0.308507,0.165364 0.08975,0.07527 0.161501,0.162849 0.214974,0.262517 0.05347,0.09967 0.08667,0.207609 0.09974,0.324011 0.01339,0.115418 0.0021,0.23148 -0.03307,0.348299 l -0.381889,1.266589 -0.422714,-0.127641 0.12764,-0.422713 -0.84491,-0.254765 -0.12764,0.422714 -0.421164,-0.127124 0.381889,-1.26659 c 0.03527,-0.116818 0.09043,-0.219224 0.165365,-0.307991 0.07527,-0.08975 0.162279,-0.161723 0.260966,-0.215491 0.09967,-0.05347 0.207042,-0.08688 0.322461,-0.100252 0.0582,-0.0065 0.116361,-0.0071 0.174668,-0.0016 z m -0.03928,0.440283 c -0.02919,-0.0026 -0.05896,-0.0024 -0.08837,10e-4 -0.05753,0.0062 -0.110847,0.02288 -0.160716,0.04961 -0.04987,0.02673 -0.09405,0.06278 -0.132291,0.108003 -0.037,0.04453 -0.06418,0.09556 -0.08165,0.153479 l -0.12764,0.422714 0.845425,0.254764 0.127641,-0.422196 c 0.01746,-0.05792 0.0222,-0.115777 0.01497,-0.173633 -0.006,-0.05854 -0.02191,-0.112943 -0.04857,-0.162781 -0.02673,-0.04983 -0.063,-0.09345 -0.108521,-0.130741 -0.0442,-0.03797 -0.09553,-0.06573 -0.15348,-0.0832 -0.02897,-0.0087 -0.05763,-0.01441 -0.08682,-0.01705 z m -4.878771,2.405538 a 2.8135648,2.8135648 0 0 1 2.813264,2.813782 2.8135648,2.8135648 0 0 1 -2.813264,2.813782 2.8135648,2.8135648 0 0 1 -2.813783,-2.813782 2.8135648,2.8135648 0 0 1 2.813783,-2.813782 z m -6.224426,4.151168 a 2.4970391,2.4970391 0 0 1 2.497005,2.497005 2.4970391,2.4970391 0 0 1 -2.497005,2.497005 2.4970391,2.4970391 0 0 1 -2.497007,-2.497005 2.4970391,2.4970391 0 0 1 2.497007,-2.497005 z m 2.776056,6.449737 a 1.9343258,1.9343258 0 0 1 1.934765,1.934247 1.9343258,1.9343258 0 0 1 -1.934765,1.93425 1.9343258,1.9343258 0 0 1 -1.934247,-1.93425 1.9343258,1.9343258 0 0 1 1.934247,-1.934247 z"
       style="opacity:1;fill:#ffffff;fill-opacity:1;stroke-width:0.26923075"
       inkscape:connector-curvature="0" />
    <path
       style="fill:#ffffff;stroke-width:0.00595922"
       d="m 25.672763,37.855602 c -3.17582,-1.79091 -3.4351,-1.95044 -3.43954,-1.95994 -0.003,-0.007 -0.006,-0.046 -0.007,-0.0881 -0.002,-0.19023 -0.0293,-0.42876 -0.0671,-0.58932 -0.0276,-0.11777 -0.10009,-0.31416 -0.15175,-0.41176 -0.20515,-0.38762 -0.57376,-0.80694 -1.00754,-1.14605 -0.10054,-0.0787 -0.26735,-0.19879 -0.31013,-0.22358 -0.0148,-0.009 -0.0247,-0.0164 -0.0214,-0.0183 0.009,-0.003 -0.20469,-0.13348 -0.35497,-0.2152 -0.0765,-0.0412 -0.13877,-0.0735 -0.13848,-0.0711 2.3e-4,0.003 -0.49391,-0.25755 -1.09817,-0.57779 -0.60425,-0.32023 -2.21042,-1.17138 -3.56921,-1.89146 -1.35883,-0.72007 -2.47427,-1.31011 -2.4788,-1.31118 -0.0113,-0.003 -0.0786,0.11311 -0.072,0.12358 0.003,0.003 1.34728,0.85978 2.98836,1.90178 l 2.98379,1.89455 0.0237,0.0418 c 0.0417,0.0735 0.0404,0.12878 -0.005,0.16696 -0.0254,0.0218 -0.11247,0.0578 -0.14254,0.0588 -0.0183,6.3e-4 -0.22301,-0.10572 -3.14997,-1.63654 -1.72174,-0.90047 -3.14218,-1.64314 -3.15653,-1.65037 l -0.0259,-0.0136 -0.0365,0.0595 c -0.0359,0.0582 -0.0361,0.06 -0.0261,0.0712 0.006,0.007 1.37899,0.87061 3.05179,1.92043 l 3.04143,1.90875 0.0427,0.048 c 0.0897,0.10032 0.13351,0.19987 0.10256,0.23305 -0.0264,0.0283 -0.12331,0.047 -0.21835,0.0419 l -0.0402,-0.002 -3.23806,-1.64609 c -1.78093,-0.90534 -3.24154,-1.64621 -3.24578,-1.6464 -0.0118,-1.2e-4 -0.0777,0.11622 -0.0703,0.12432 0.003,0.003 1.36658,0.83833 3.02985,1.85527 l 3.02414,1.84893 0.0182,0.0339 c 0.0216,0.0402 0.0393,0.0943 0.0401,0.12168 2.8e-4,0.0113 -0.007,0.0311 -0.0142,0.0453 -0.0132,0.023 -0.0194,0.0272 -0.061,0.0424 -0.0386,0.0142 -0.0912,0.0218 -0.12886,0.019 -0.003,-2.3e-4 -1.43035,-0.71357 -3.16855,-1.5849 -1.7382,-0.87133 -3.163343,-1.5849 -3.166993,-1.58572 -0.005,-7.4e-4 -0.0184,0.0217 -0.0391,0.0612 l -0.0325,0.0626 0.0819,0.0525 c 0.0854,0.0544 1.444733,0.89863 1.983733,1.23187 0.83399,0.51563 1.40925,0.86746 2.0554,1.25684 0.59488,0.35854 3.26077,1.90259 3.52302,2.0406 0.29312,0.15416 0.50609,0.24805 0.72732,0.32047 0.2749,0.0901 0.56405,0.13723 0.81501,0.13295 0.29332,-0.006 0.7721,-0.13954 1.08076,-0.30377 0.0194,-0.0101 0.0402,-0.0178 0.0464,-0.0163 0.0402,0.008 0.28918,0.14857 1.5948,0.90252 1.40067,0.80887 1.04441,0.71245 3.2887,2.03593 -0.84449,-1.04785 -0.86114,-2.06911 -0.86114,-2.06911 z"
       id="path168"
       inkscape:connector-curvature="0" />
    <path
       style="fill:#ffffff;stroke-width:0.00543137"
       d="m 18.242173,46.955292 c 0.009,0.0122 0.0165,0.0194 0.0185,0.0163 0.002,-0.004 0.006,2.1e-4 0.01,0.006 0.0126,0.0218 0.0785,0.0873 0.12276,0.12205 0.0972,0.0762 0.2023,0.12357 0.33015,0.14878 0.1384,0.0273 0.24122,0.0289 0.40398,0.006 0.27564,-0.0383 0.57622,-0.1437 0.98643,-0.346 0.21737,-0.10723 0.23131,-0.11566 6.55696,-3.98768 0.56905,-0.36418 1.04864,-1.98723 -0.66467,-1.38695 -3.79743,2.10123 -6.25178,3.45716 -6.30058,3.48085 -0.12185,0.0591 -0.4613,0.25704 -0.57435,0.33465 -0.4219,0.2904 -0.668,0.5196 -0.82594,0.76901 -0.0677,0.10691 -0.12849,0.25394 -0.15026,0.36336 -0.0186,0.0931 -0.0117,0.27639 0.0117,0.31703 0.003,0.004 0.003,0.008 -0.001,0.009 -0.0124,3e-4 0.0273,0.0778 0.0757,0.14764 z"
       id="path176"
       inkscape:connector-curvature="0" />
  </g>
</svg>
